<svg xmlns="http://www.w3.org/2000/svg" xmlns:xlink="http://www.w3.org/1999/xlink" width="710" height="303.94"><rect width="710" height="303.94" rx="0" ry="0" class="a"/><svg height="303.94" viewBox="0 0 71 30.394" width="710" xmlns="http://www.w3.org/2000/svg" xmlns:xlink="http://www.w3.org/1999/xlink"><style>@keyframes l{0%{transform:translateX(0)}2%{transform:translateX(-142px)}2.1%{transform:translateX(-426px)}2.2%{transform:translateX(-852px)}4.3%{transform:translateX(-923px)}6.5%{transform:translateX(-994px)}6.7%{transform:translateX(-1278px)}8.6%{transform:translateX(-1420px)}10.9%{transform:translateX(-1491px)}13%{transform:translateX(-1562px)}15.3%{transform:translateX(-1633px)}17.5%{transform:translateX(-1704px)}17.9%{transform:translateX(-1988px)}19.7%{transform:translateX(-2059px)}21.9%{transform:translateX(-2201px)}24.1%{transform:translateX(-2343px)}26.3%{transform:translateX(-2485px)}28.5%{transform:translateX(-2627px)}30.7%{transform:translateX(-2769px)}32.9%{transform:translateX(-2911px)}35.1%{transform:translateX(-3053px)}37.2%{transform:translateX(-3195px)}39.4%{transform:translateX(-3337px)}41.5%{transform:translateX(-3479px)}41.6%{transform:translateX(-3550px)}43.8%{transform:translateX(-3692px)}46.1%{transform:translateX(-3834px)}48.3%{transform:translateX(-3905px)}50.5%{transform:translateX(-4047px)}52.7%{transform:translateX(-4189px)}55%{transform:translateX(-4331px)}57.2%{transform:translateX(-4473px)}59.4%{transform:translateX(-4686px)}61.7%{transform:translateX(-4828px)}64%{transform:translateX(-4970px)}66.2%{transform:translateX(-5112px)}68.5%{transform:translateX(-5254px)}70.7%{transform:translateX(-5325px)}70.8%{transform:translateX(-5396px)}73%{transform:translateX(-5538px)}75.2%{transform:translateX(-5680px)}77.5%{transform:translateX(-5822px)}79.7%{transform:translateX(-5964px)}81.8%{transform:translateX(-6106px)}84.1%{transform:translateX(-6248px)}86.4%{transform:translateX(-6319px)}88.6%{transform:translateX(-6461px)}90.8%{transform:translateX(-6603px)}93%{transform:translateX(-6745px)}95.3%{transform:translateX(-6887px)}97.5%{transform:translateX(-7029px)}99.7%{transform:translateX(-7171px)}to{transform:translateX(-7739px)}}.a{fill:#282d35}.c,.d{fill:#dbab79;white-space:pre}.d{fill:#b9bfca;font-weight:700}.e,.f,.g,.h,.i{fill:#6f7783;white-space:pre}.f,.g,.h,.i{fill:#66c2cd}.g,.h,.i{fill:#d290e4}.h,.i{fill:#a8cc8c}.i{fill:#b9c0cb}</style><g font-family="Monaco,Consolas,Menlo,'Bitstream Vera Sans Mono','Powerline Symbols',monospace" font-size="1.67"><defs><symbol id="1"><text y="1.67" class="c">⠋</text><text x="2.004" y="1.67" class="d">lint:ts</text></symbol><symbol id="2"><text x="2.004" y="1.67" class="c">⠋</text><text x="4.008" y="1.67" class="e">$</text><text x="6.012" y="1.67" class="e">tsc</text><text x="10.02" y="1.67" class="f">-p</text><text x="13.026" y="1.67" class="g">tsconfig.build.json</text><text x="33.066" y="1.67" class="f">--noEmit</text></symbol><symbol id="3"><text y="1.67" class="c">⠋</text><text x="2.004" y="1.67" class="d">lint:eslint</text></symbol><symbol id="4"><text x="2.004" y="1.67" class="c">⠋</text><text x="4.008" y="1.67" class="e">$</text><text x="6.012" y="1.67" class="e">eslint</text><text x="13.026" y="1.67" class="c">bin/*.js</text><text x="22.044" y="1.67" class="c">src/*.ts</text><text x="31.062" y="1.67" class="c">__tests__/*.ts</text><text x="46.092" y="1.67" class="f">--cache</text></symbol><symbol id="5"><text y="1.67" class="c">⠋</text><text x="2.004" y="1.67" class="d">lint:docs</text></symbol><symbol id="6"><text y="1.67" class="c">⠙</text><text x="2.004" y="1.67" class="d">lint:ts</text></symbol><symbol id="7"><text x="2.004" y="1.67" class="c">⠙</text><text x="4.008" y="1.67" class="e">$</text><text x="6.012" y="1.67" class="e">tsc</text><text x="10.02" y="1.67" class="f">-p</text><text x="13.026" y="1.67" class="g">tsconfig.build.json</text><text x="33.066" y="1.67" class="f">--noEmit</text></symbol><symbol id="8"><text y="1.67" class="c">⠹</text><text x="2.004" y="1.67" class="d">lint:ts</text></symbol><symbol id="9"><text x="2.004" y="1.67" class="c">⠹</text><text x="4.008" y="1.67" class="e">$</text><text x="6.012" y="1.67" class="e">tsc</text><text x="10.02" y="1.67" class="f">-p</text><text x="13.026" y="1.67" class="g">tsconfig.build.json</text><text x="33.066" y="1.67" class="f">--noEmit</text></symbol><symbol id="10"><text y="1.67" class="c">⠹</text><text x="2.004" y="1.67" class="d">lint:eslint</text></symbol><symbol id="11"><text x="2.004" y="1.67" class="c">⠹</text><text x="4.008" y="1.67" class="e">$</text><text x="6.012" y="1.67" class="e">eslint</text><text x="13.026" y="1.67" class="c">bin/*.js</text><text x="22.044" y="1.67" class="c">src/*.ts</text><text x="31.062" y="1.67" class="c">__tests__/*.ts</text><text x="46.092" y="1.67" class="f">--cache</text></symbol><symbol id="12"><text y="1.67" class="c">⠹</text><text x="2.004" y="1.67" class="d">lint:docs</text></symbol><symbol id="13"><text x="2.004" y="1.67" class="h">✔</text><text x="4.008" y="1.67" class="e">$</text><text x="6.012" y="1.67" class="e">markdownlint</text><text x="19.038" y="1.67" class="c">*.md</text><text x="24.048" y="1.67" class="e">168ms</text></symbol><symbol id="14"><text y="1.67" class="h">✔</text><text x="2.004" y="1.67" class="d">lint:docs</text><text x="12.024" y="1.67" class="e">168ms</text></symbol><symbol id="15"><text y="1.67" class="c">⠸</text><text x="2.004" y="1.67" class="d">lint:ts</text></symbol><symbol id="16"><text x="2.004" y="1.67" class="c">⠸</text><text x="4.008" y="1.67" class="e">$</text><text x="6.012" y="1.67" class="e">tsc</text><text x="10.02" y="1.67" class="f">-p</text><text x="13.026" y="1.67" class="g">tsconfig.build.json</text><text x="33.066" y="1.67" class="f">--noEmit</text></symbol><symbol id="17"><text y="1.67" class="c">⠼</text><text x="2.004" y="1.67" class="d">lint:ts</text></symbol><symbol id="18"><text x="2.004" y="1.67" class="c">⠼</text><text x="4.008" y="1.67" class="e">$</text><text x="6.012" y="1.67" class="e">tsc</text><text x="10.02" y="1.67" class="f">-p</text><text x="13.026" y="1.67" class="g">tsconfig.build.json</text><text x="33.066" y="1.67" class="f">--noEmit</text></symbol><symbol id="19"><text y="1.67" class="c">⠴</text><text x="2.004" y="1.67" class="d">lint:ts</text></symbol><symbol id="20"><text x="2.004" y="1.67" class="c">⠴</text><text x="4.008" y="1.67" class="e">$</text><text x="6.012" y="1.67" class="e">tsc</text><text x="10.02" y="1.67" class="f">-p</text><text x="13.026" y="1.67" class="g">tsconfig.build.json</text><text x="33.066" y="1.67" class="f">--noEmit</text></symbol><symbol id="21"><text y="1.67" class="c">⠦</text><text x="2.004" y="1.67" class="d">lint:ts</text></symbol><symbol id="22"><text x="2.004" y="1.67" class="c">⠦</text><text x="4.008" y="1.67" class="e">$</text><text x="6.012" y="1.67" class="e">tsc</text><text x="10.02" y="1.67" class="f">-p</text><text x="13.026" y="1.67" class="g">tsconfig.build.json</text><text x="33.066" y="1.67" class="f">--noEmit</text></symbol><symbol id="23"><text y="1.67" class="c">⠧</text><text x="2.004" y="1.67" class="d">lint:ts</text></symbol><symbol id="24"><text x="2.004" y="1.67" class="c">⠧</text><text x="4.008" y="1.67" class="e">$</text><text x="6.012" y="1.67" class="e">tsc</text><text x="10.02" y="1.67" class="f">-p</text><text x="13.026" y="1.67" class="g">tsconfig.build.json</text><text x="33.066" y="1.67" class="f">--noEmit</text></symbol><symbol id="25"><text y="1.67" class="c">⠧</text><text x="2.004" y="1.67" class="d">lint:eslint</text></symbol><symbol id="26"><text x="2.004" y="1.67" class="c">⠧</text><text x="4.008" y="1.67" class="e">$</text><text x="6.012" y="1.67" class="e">eslint</text><text x="13.026" y="1.67" class="c">bin/*.js</text><text x="22.044" y="1.67" class="c">src/*.ts</text><text x="31.062" y="1.67" class="c">__tests__/*.ts</text><text x="46.092" y="1.67" class="f">--cache</text></symbol><symbol id="27"><text y="1.67" class="h">✔</text><text x="2.004" y="1.67" class="d">lint:eslint</text><text x="14.028" y="1.67" class="e">590ms</text></symbol><symbol id="28"><text x="2.004" y="1.67" class="h">✔</text><text x="4.008" y="1.67" class="e">$</text><text x="6.012" y="1.67" class="e">eslint</text><text x="13.026" y="1.67" class="c">bin/*.js</text><text x="22.044" y="1.67" class="c">src/*.ts</text><text x="31.062" y="1.67" class="c">__tests__/*.ts</text><text x="46.092" y="1.67" class="f">--cache</text><text x="54.108" y="1.67" class="e">590ms</text></symbol><symbol id="29"><text y="1.67" class="c">⠇</text><text x="2.004" y="1.67" class="d">lint:ts</text></symbol><symbol id="30"><text x="2.004" y="1.67" class="c">⠇</text><text x="4.008" y="1.67" class="e">$</text><text x="6.012" y="1.67" class="e">tsc</text><text x="10.02" y="1.67" class="f">-p</text><text x="13.026" y="1.67" class="g">tsconfig.build.json</text><text x="33.066" y="1.67" class="f">--noEmit</text></symbol><symbol id="31"><text y="1.67" class="c">⠏</text><text x="2.004" y="1.67" class="d">lint:ts</text></symbol><symbol id="32"><text x="2.004" y="1.67" class="c">⠏</text><text x="4.008" y="1.67" class="e">$</text><text x="6.012" y="1.67" class="e">tsc</text><text x="10.02" y="1.67" class="f">-p</text><text x="13.026" y="1.67" class="g">tsconfig.build.json</text><text x="33.066" y="1.67" class="f">--noEmit</text></symbol><symbol id="33"><text y="1.67" class="h">✔</text><text x="2.004" y="1.67" class="d">lint:ts</text><text x="10.02" y="1.67" class="e">3.657s</text></symbol><symbol id="34"><text x="2.004" y="1.67" class="h">✔</text><text x="4.008" y="1.67" class="e">$</text><text x="6.012" y="1.67" class="e">tsc</text><text x="10.02" y="1.67" class="f">-p</text><text x="13.026" y="1.67" class="g">tsconfig.build.json</text><text x="33.066" y="1.67" class="f">--noEmit</text><text x="42.084" y="1.67" class="e">3.655s</text></symbol><symbol id="35"><text y="1.67" class="h">success</text><text x="8.016" y="1.67" class="i">✨</text><text x="10.02" y="1.67" class="i">Done</text><text x="15.03" y="1.67" class="i">in</text><text x="18.036" y="1.67" class="i">3.717s</text></symbol><symbol id="a"><path fill="transparent" d="M0 0h71v14H0z"/></symbol><symbol id="b"><path fill="#6f7683" d="M0 0h1.102v2.171H0z"/></symbol></defs><path class="a" d="M0 0h71v30.394H0z"/><g style="animation-duration:3.731153s;animation-iteration-count:infinite;animation-name:l;animation-timing-function:steps(1,end)"><svg width="7810"><svg><use xlink:href="#a"/><use xlink:href="#b" x="-.004"/></svg><svg x="71"><use xlink:href="#a"/></svg><svg x="142"><use xlink:href="#a"/><use xlink:href="#1"/><use xlink:href="#2" y="2.171"/></svg><svg x="213"><use xlink:href="#a"/><use xlink:href="#1"/></svg><svg x="284"><use xlink:href="#a"/><use xlink:href="#1"/><use xlink:href="#2" y="2.171"/><use xlink:href="#3" y="4.342"/></svg><svg x="355"><use xlink:href="#a"/></svg><svg x="426"><use xlink:href="#a"/><use xlink:href="#1"/><use xlink:href="#2" y="2.171"/><use xlink:href="#3" y="4.342"/><use xlink:href="#4" y="6.513"/></svg><svg x="497"><use xlink:href="#a"/><use xlink:href="#1"/><use xlink:href="#2" y="2.171"/><use xlink:href="#3" y="4.342"/></svg><svg x="568"><use xlink:href="#a"/></svg><svg x="639"><use xlink:href="#a"/><use xlink:href="#1"/><use xlink:href="#2" y="2.171"/><use xlink:href="#3" y="4.342"/><use xlink:href="#4" y="6.513"/><use xlink:href="#5" y="8.684"/></svg><svg x="710"><use xlink:href="#a"/><use xlink:href="#1"/></svg><svg x="781"><use xlink:href="#a"/></svg><svg x="852"><use xlink:href="#a"/><use xlink:href="#1"/><use xlink:href="#2" y="2.171"/><use xlink:href="#3" y="4.342"/><use xlink:href="#4" y="6.513"/><use xlink:href="#5" y="8.684"/><text x="2.004" y="12.525" class="c">⠋</text><text x="4.008" y="12.525" class="e">$</text><text x="6.012" y="12.525" class="e">markdownlint</text><text x="19.038" y="12.525" class="c">*.md</text></svg><svg x="923"><use xlink:href="#a"/><use xlink:href="#6"/><use xlink:href="#7" y="2.171"/><text y="6.012" class="c">⠙</text><text x="2.004" y="6.012" class="d">lint:eslint</text><text x="2.004" y="8.183" class="c">⠙</text><text x="4.008" y="8.183" class="e">$</text><text x="6.012" y="8.183" class="e">eslint</text><text x="13.026" y="8.183" class="c">bin/*.js</text><text x="22.044" y="8.183" class="c">src/*.ts</text><text x="31.062" y="8.183" class="c">__tests__/*.ts</text><text x="46.092" y="8.183" class="f">--cache</text><text y="10.354" class="c">⠙</text><text x="2.004" y="10.354" class="d">lint:docs</text><text x="2.004" y="12.525" class="c">⠙</text><text x="4.008" y="12.525" class="e">$</text><text x="6.012" y="12.525" class="e">markdownlint</text><text x="19.038" y="12.525" class="c">*.md</text></svg><svg x="994"><use xlink:href="#a"/><use xlink:href="#8"/><use xlink:href="#9" y="2.171"/><use xlink:href="#10" y="4.342"/><use xlink:href="#11" y="6.513"/><use xlink:href="#12" y="8.684"/><text x="2.004" y="12.525" class="c">⠹</text><text x="4.008" y="12.525" class="e">$</text><text x="6.012" y="12.525" class="e">markdownlint</text><text x="19.038" y="12.525" class="c">*.md</text></svg><svg x="1065"><use xlink:href="#a"/><use xlink:href="#8"/><use xlink:href="#9" y="2.171"/><use xlink:href="#10" y="4.342"/><use xlink:href="#11" y="6.513"/></svg><svg x="1136"><use xlink:href="#a"/></svg><svg x="1207"><use xlink:href="#a"/><use xlink:href="#8"/><use xlink:href="#9" y="2.171"/><use xlink:href="#10" y="4.342"/><use xlink:href="#11" y="6.513"/><use xlink:href="#12" y="8.684"/><use xlink:href="#13" y="10.855"/></svg><svg x="1278"><use xlink:href="#a"/><use xlink:href="#8"/><use xlink:href="#9" y="2.171"/><use xlink:href="#10" y="4.342"/><use xlink:href="#11" y="6.513"/><use xlink:href="#14" y="8.684"/><use xlink:href="#13" y="10.855"/></svg><svg x="1349"><use xlink:href="#a"/><use xlink:href="#8"/><use xlink:href="#9" y="2.171"/><use xlink:href="#10" y="4.342"/><use xlink:href="#11" y="6.513"/><use xlink:href="#14" y="8.684"/></svg><svg x="1420"><use xlink:href="#a"/><use xlink:href="#15"/><use xlink:href="#16" y="2.171"/><text y="6.012" class="c">⠸</text><text x="2.004" y="6.012" class="d">lint:eslint</text><text x="2.004" y="8.183" class="c">⠸</text><text x="4.008" y="8.183" class="e">$</text><text x="6.012" y="8.183" class="e">eslint</text><text x="13.026" y="8.183" class="c">bin/*.js</text><text x="22.044" y="8.183" class="c">src/*.ts</text><text x="31.062" y="8.183" class="c">__tests__/*.ts</text><text x="46.092" y="8.183" class="f">--cache</text><use xlink:href="#14" y="8.684"/><use xlink:href="#13" y="10.855"/></svg><svg x="1491"><use xlink:href="#a"/><use xlink:href="#17"/><use xlink:href="#18" y="2.171"/><text y="6.012" class="c">⠼</text><text x="2.004" y="6.012" class="d">lint:eslint</text><text x="2.004" y="8.183" class="c">⠼</text><text x="4.008" y="8.183" class="e">$</text><text x="6.012" y="8.183" class="e">eslint</text><text x="13.026" y="8.183" class="c">bin/*.js</text><text x="22.044" y="8.183" class="c">src/*.ts</text><text x="31.062" y="8.183" class="c">__tests__/*.ts</text><text x="46.092" y="8.183" class="f">--cache</text><use xlink:href="#14" y="8.684"/><use xlink:href="#13" y="10.855"/></svg><svg x="1562"><use xlink:href="#a"/><use xlink:href="#19"/><use xlink:href="#20" y="2.171"/><text y="6.012" class="c">⠴</text><text x="2.004" y="6.012" class="d">lint:eslint</text><text x="2.004" y="8.183" class="c">⠴</text><text x="4.008" y="8.183" class="e">$</text><text x="6.012" y="8.183" class="e">eslint</text><text x="13.026" y="8.183" class="c">bin/*.js</text><text x="22.044" y="8.183" class="c">src/*.ts</text><text x="31.062" y="8.183" class="c">__tests__/*.ts</text><text x="46.092" y="8.183" class="f">--cache</text><use xlink:href="#14" y="8.684"/><use xlink:href="#13" y="10.855"/></svg><svg x="1633"><use xlink:href="#a"/><use xlink:href="#21"/><use xlink:href="#22" y="2.171"/><text y="6.012" class="c">⠦</text><text x="2.004" y="6.012" class="d">lint:eslint</text><text x="2.004" y="8.183" class="c">⠦</text><text x="4.008" y="8.183" class="e">$</text><text x="6.012" y="8.183" class="e">eslint</text><text x="13.026" y="8.183" class="c">bin/*.js</text><text x="22.044" y="8.183" class="c">src/*.ts</text><text x="31.062" y="8.183" class="c">__tests__/*.ts</text><text x="46.092" y="8.183" class="f">--cache</text><use xlink:href="#14" y="8.684"/><use xlink:href="#13" y="10.855"/></svg><svg x="1704"><use xlink:href="#a"/><use xlink:href="#23"/><use xlink:href="#24" y="2.171"/><use xlink:href="#25" y="4.342"/><use xlink:href="#26" y="6.513"/><use xlink:href="#14" y="8.684"/><use xlink:href="#13" y="10.855"/></svg><svg x="1775"><use xlink:href="#a"/><use xlink:href="#23"/><use xlink:href="#24" y="2.171"/><use xlink:href="#25" y="4.342"/><use xlink:href="#26" y="6.513"/></svg><svg x="1846"><use xlink:href="#a"/><use xlink:href="#23"/></svg><svg x="1917"><use xlink:href="#a"/></svg><svg x="1988"><use xlink:href="#a"/><use xlink:href="#23"/><use xlink:href="#24" y="2.171"/><use xlink:href="#27" y="4.342"/><use xlink:href="#28" y="6.513"/><use xlink:href="#14" y="8.684"/><use xlink:href="#13" y="10.855"/></svg><svg x="2059"><use xlink:href="#a"/><use xlink:href="#29"/><use xlink:href="#30" y="2.171"/><use xlink:href="#27" y="4.342"/><use xlink:href="#28" y="6.513"/><use xlink:href="#14" y="8.684"/><use xlink:href="#13" y="10.855"/></svg><svg x="2130"><use xlink:href="#a"/><use xlink:href="#29"/><use xlink:href="#30" y="2.171"/><use xlink:href="#27" y="4.342"/><use xlink:href="#28" y="6.513"/><use xlink:href="#14" y="8.684"/></svg><svg x="2201"><use xlink:href="#a"/><use xlink:href="#31"/><use xlink:href="#32" y="2.171"/><use xlink:href="#27" y="4.342"/><use xlink:href="#28" y="6.513"/><use xlink:href="#14" y="8.684"/><use xlink:href="#13" y="10.855"/></svg><svg x="2272"><use xlink:href="#a"/><use xlink:href="#31"/><use xlink:href="#32" y="2.171"/><use xlink:href="#27" y="4.342"/><use xlink:href="#28" y="6.513"/><use xlink:href="#14" y="8.684"/></svg><svg x="2343"><use xlink:href="#a"/><use xlink:href="#1"/><use xlink:href="#2" y="2.171"/><use xlink:href="#27" y="4.342"/><use xlink:href="#28" y="6.513"/><use xlink:href="#14" y="8.684"/><use xlink:href="#13" y="10.855"/></svg><svg x="2414"><use xlink:href="#a"/><use xlink:href="#1"/></svg><svg x="2485"><use xlink:href="#a"/><use xlink:href="#6"/><use xlink:href="#7" y="2.171"/><use xlink:href="#27" y="4.342"/><use xlink:href="#28" y="6.513"/><use xlink:href="#14" y="8.684"/><use xlink:href="#13" y="10.855"/></svg><svg x="2556"><use xlink:href="#a"/><use xlink:href="#6"/><use xlink:href="#7" y="2.171"/><use xlink:href="#27" y="4.342"/><use xlink:href="#28" y="6.513"/></svg><svg x="2627"><use xlink:href="#a"/><use xlink:href="#8"/><use xlink:href="#9" y="2.171"/><use xlink:href="#27" y="4.342"/><use xlink:href="#28" y="6.513"/><use xlink:href="#14" y="8.684"/><use xlink:href="#13" y="10.855"/></svg><svg x="2698"><use xlink:href="#a"/><use xlink:href="#8"/><use xlink:href="#9" y="2.171"/><use xlink:href="#27" y="4.342"/><use xlink:href="#28" y="6.513"/><use xlink:href="#14" y="8.684"/></svg><svg x="2769"><use xlink:href="#a"/><use xlink:href="#15"/><use xlink:href="#16" y="2.171"/><use xlink:href="#27" y="4.342"/><use xlink:href="#28" y="6.513"/><use xlink:href="#14" y="8.684"/><use xlink:href="#13" y="10.855"/></svg><svg x="2840"><use xlink:href="#a"/><use xlink:href="#15"/><use xlink:href="#16" y="2.171"/><use xlink:href="#27" y="4.342"/><use xlink:href="#28" y="6.513"/><use xlink:href="#14" y="8.684"/></svg><svg x="2911"><use xlink:href="#a"/><use xlink:href="#17"/><use xlink:href="#18" y="2.171"/><use xlink:href="#27" y="4.342"/><use xlink:href="#28" y="6.513"/><use xlink:href="#14" y="8.684"/><use xlink:href="#13" y="10.855"/></svg><svg x="2982"><use xlink:href="#a"/><use xlink:href="#17"/><use xlink:href="#18" y="2.171"/><use xlink:href="#27" y="4.342"/><use xlink:href="#28" y="6.513"/><use xlink:href="#14" y="8.684"/></svg><svg x="3053"><use xlink:href="#a"/><use xlink:href="#19"/><use xlink:href="#20" y="2.171"/><use xlink:href="#27" y="4.342"/><use xlink:href="#28" y="6.513"/><use xlink:href="#14" y="8.684"/><use xlink:href="#13" y="10.855"/></svg><svg x="3124"><use xlink:href="#a"/><use xlink:href="#19"/><use xlink:href="#20" y="2.171"/><use xlink:href="#27" y="4.342"/><use xlink:href="#28" y="6.513"/><use xlink:href="#14" y="8.684"/></svg><svg x="3195"><use xlink:href="#a"/><use xlink:href="#21"/><use xlink:href="#22" y="2.171"/><use xlink:href="#27" y="4.342"/><use xlink:href="#28" y="6.513"/><use xlink:href="#14" y="8.684"/><use xlink:href="#13" y="10.855"/></svg><svg x="3266"><use xlink:href="#a"/><use xlink:href="#21"/><use xlink:href="#22" y="2.171"/><use xlink:href="#27" y="4.342"/><use xlink:href="#28" y="6.513"/></svg><svg x="3337"><use xlink:href="#a"/><use xlink:href="#23"/><use xlink:href="#24" y="2.171"/><use xlink:href="#27" y="4.342"/><use xlink:href="#28" y="6.513"/><use xlink:href="#14" y="8.684"/><use xlink:href="#13" y="10.855"/></svg><svg x="3408"><use xlink:href="#a"/><use xlink:href="#23"/><use xlink:href="#24" y="2.171"/><use xlink:href="#27" y="4.342"/><use xlink:href="#28" y="6.513"/></svg><svg x="3479"><use xlink:href="#a"/></svg><svg x="3550"><use xlink:href="#a"/><use xlink:href="#29"/><use xlink:href="#30" y="2.171"/><use xlink:href="#27" y="4.342"/><use xlink:href="#28" y="6.513"/><use xlink:href="#14" y="8.684"/><use xlink:href="#13" y="10.855"/></svg><svg x="3621"><use xlink:href="#a"/><use xlink:href="#29"/><use xlink:href="#30" y="2.171"/><use xlink:href="#27" y="4.342"/><use xlink:href="#28" y="6.513"/></svg><svg x="3692"><use xlink:href="#a"/><use xlink:href="#31"/><use xlink:href="#32" y="2.171"/><use xlink:href="#27" y="4.342"/><use xlink:href="#28" y="6.513"/><use xlink:href="#14" y="8.684"/><use xlink:href="#13" y="10.855"/></svg><svg x="3763"><use xlink:href="#a"/><use xlink:href="#31"/><use xlink:href="#32" y="2.171"/><use xlink:href="#27" y="4.342"/><use xlink:href="#28" y="6.513"/><use xlink:href="#14" y="8.684"/></svg><svg x="3834"><use xlink:href="#a"/><use xlink:href="#1"/><use xlink:href="#2" y="2.171"/><use xlink:href="#27" y="4.342"/><use xlink:href="#28" y="6.513"/><use xlink:href="#14" y="8.684"/><use xlink:href="#13" y="10.855"/></svg><svg x="3905"><use xlink:href="#a"/><use xlink:href="#6"/><use xlink:href="#7" y="2.171"/><use xlink:href="#27" y="4.342"/><use xlink:href="#28" y="6.513"/><use xlink:href="#14" y="8.684"/><use xlink:href="#13" y="10.855"/></svg><svg x="3976"><use xlink:href="#a"/><use xlink:href="#6"/><use xlink:href="#7" y="2.171"/><use xlink:href="#27" y="4.342"/><use xlink:href="#28" y="6.513"/><use xlink:href="#14" y="8.684"/></svg><svg x="4047"><use xlink:href="#a"/><use xlink:href="#8"/><use xlink:href="#9" y="2.171"/><use xlink:href="#27" y="4.342"/><use xlink:href="#28" y="6.513"/><use xlink:href="#14" y="8.684"/><use xlink:href="#13" y="10.855"/></svg><svg x="4118"><use xlink:href="#a"/><use xlink:href="#8"/><use xlink:href="#9" y="2.171"/><use xlink:href="#27" y="4.342"/><use xlink:href="#28" y="6.513"/><use xlink:href="#14" y="8.684"/></svg><svg x="4189"><use xlink:href="#a"/><use xlink:href="#15"/><use xlink:href="#16" y="2.171"/><use xlink:href="#27" y="4.342"/><use xlink:href="#28" y="6.513"/><use xlink:href="#14" y="8.684"/><use xlink:href="#13" y="10.855"/></svg><svg x="4260"><use xlink:href="#a"/><use xlink:href="#15"/><use xlink:href="#16" y="2.171"/><use xlink:href="#27" y="4.342"/><use xlink:href="#28" y="6.513"/><use xlink:href="#14" y="8.684"/></svg><svg x="4331"><use xlink:href="#a"/><use xlink:href="#17"/><use xlink:href="#18" y="2.171"/><use xlink:href="#27" y="4.342"/><use xlink:href="#28" y="6.513"/><use xlink:href="#14" y="8.684"/><use xlink:href="#13" y="10.855"/></svg><svg x="4402"><use xlink:href="#a"/><use xlink:href="#17"/><use xlink:href="#18" y="2.171"/><use xlink:href="#27" y="4.342"/></svg><svg x="4473"><use xlink:href="#a"/><use xlink:href="#19"/><use xlink:href="#20" y="2.171"/><use xlink:href="#27" y="4.342"/><use xlink:href="#28" y="6.513"/><use xlink:href="#14" y="8.684"/><use xlink:href="#13" y="10.855"/></svg><svg x="4544"><use xlink:href="#a"/><use xlink:href="#19"/><use xlink:href="#20" y="2.171"/><use xlink:href="#27" y="4.342"/><use xlink:href="#28" y="6.513"/></svg><svg x="4615"><use xlink:href="#a"/></svg><svg x="4686"><use xlink:href="#a"/><use xlink:href="#21"/><use xlink:href="#22" y="2.171"/><use xlink:href="#27" y="4.342"/><use xlink:href="#28" y="6.513"/><use xlink:href="#14" y="8.684"/><use xlink:href="#13" y="10.855"/></svg><svg x="4757"><use xlink:href="#a"/><use xlink:href="#21"/><use xlink:href="#22" y="2.171"/><use xlink:href="#27" y="4.342"/><use xlink:href="#28" y="6.513"/><use xlink:href="#14" y="8.684"/></svg><svg x="4828"><use xlink:href="#a"/><use xlink:href="#23"/><use xlink:href="#24" y="2.171"/><use xlink:href="#27" y="4.342"/><use xlink:href="#28" y="6.513"/><use xlink:href="#14" y="8.684"/><use xlink:href="#13" y="10.855"/></svg><svg x="4899"><use xlink:href="#a"/><use xlink:href="#23"/><use xlink:href="#24" y="2.171"/><use xlink:href="#27" y="4.342"/><use xlink:href="#28" y="6.513"/></svg><svg x="4970"><use xlink:href="#a"/><use xlink:href="#29"/><use xlink:href="#30" y="2.171"/><use xlink:href="#27" y="4.342"/><use xlink:href="#28" y="6.513"/><use xlink:href="#14" y="8.684"/><use xlink:href="#13" y="10.855"/></svg><svg x="5041"><use xlink:href="#a"/><use xlink:href="#29"/><use xlink:href="#30" y="2.171"/><use xlink:href="#27" y="4.342"/><use xlink:href="#28" y="6.513"/></svg><svg x="5112"><use xlink:href="#a"/><use xlink:href="#31"/><use xlink:href="#32" y="2.171"/><use xlink:href="#27" y="4.342"/><use xlink:href="#28" y="6.513"/><use xlink:href="#14" y="8.684"/><use xlink:href="#13" y="10.855"/></svg><svg x="5183"><use xlink:href="#a"/><use xlink:href="#31"/><use xlink:href="#32" y="2.171"/><use xlink:href="#27" y="4.342"/><use xlink:href="#28" y="6.513"/></svg><svg x="5254"><use xlink:href="#a"/><use xlink:href="#1"/><use xlink:href="#2" y="2.171"/><use xlink:href="#27" y="4.342"/><use xlink:href="#28" y="6.513"/><use xlink:href="#14" y="8.684"/><use xlink:href="#13" y="10.855"/></svg><svg x="5325"><use xlink:href="#a"/><use xlink:href="#1"/><use xlink:href="#2" y="2.171"/><use xlink:href="#27" y="4.342"/><use xlink:href="#28" y="6.513"/></svg><svg x="5396"><use xlink:href="#a"/><use xlink:href="#6"/><use xlink:href="#7" y="2.171"/><use xlink:href="#27" y="4.342"/><use xlink:href="#28" y="6.513"/><use xlink:href="#14" y="8.684"/><use xlink:href="#13" y="10.855"/></svg><svg x="5467"><use xlink:href="#a"/><use xlink:href="#6"/><use xlink:href="#7" y="2.171"/><use xlink:href="#27" y="4.342"/><use xlink:href="#28" y="6.513"/></svg><svg x="5538"><use xlink:href="#a"/><use xlink:href="#8"/><use xlink:href="#9" y="2.171"/><use xlink:href="#27" y="4.342"/><use xlink:href="#28" y="6.513"/><use xlink:href="#14" y="8.684"/><use xlink:href="#13" y="10.855"/></svg><svg x="5609"><use xlink:href="#a"/><use xlink:href="#8"/><use xlink:href="#9" y="2.171"/><use xlink:href="#27" y="4.342"/><use xlink:href="#28" y="6.513"/></svg><svg x="5680"><use xlink:href="#a"/><use xlink:href="#15"/><use xlink:href="#16" y="2.171"/><use xlink:href="#27" y="4.342"/><use xlink:href="#28" y="6.513"/><use xlink:href="#14" y="8.684"/><use xlink:href="#13" y="10.855"/></svg><svg x="5751"><use xlink:href="#a"/><use xlink:href="#15"/><use xlink:href="#16" y="2.171"/><use xlink:href="#27" y="4.342"/></svg><svg x="5822"><use xlink:href="#a"/><use xlink:href="#17"/><use xlink:href="#18" y="2.171"/><use xlink:href="#27" y="4.342"/><use xlink:href="#28" y="6.513"/><use xlink:href="#14" y="8.684"/><use xlink:href="#13" y="10.855"/></svg><svg x="5893"><use xlink:href="#a"/><use xlink:href="#17"/><use xlink:href="#18" y="2.171"/><use xlink:href="#27" y="4.342"/><use xlink:href="#28" y="6.513"/></svg><svg x="5964"><use xlink:href="#a"/><use xlink:href="#19"/><use xlink:href="#20" y="2.171"/><use xlink:href="#27" y="4.342"/><use xlink:href="#28" y="6.513"/><use xlink:href="#14" y="8.684"/><use xlink:href="#13" y="10.855"/></svg><svg x="6035"><use xlink:href="#a"/><use xlink:href="#19"/><use xlink:href="#20" y="2.171"/><use xlink:href="#27" y="4.342"/><use xlink:href="#28" y="6.513"/><use xlink:href="#14" y="8.684"/></svg><svg x="6106"><use xlink:href="#a"/><use xlink:href="#21"/><use xlink:href="#22" y="2.171"/><use xlink:href="#27" y="4.342"/><use xlink:href="#28" y="6.513"/><use xlink:href="#14" y="8.684"/><use xlink:href="#13" y="10.855"/></svg><svg x="6177"><use xlink:href="#a"/><use xlink:href="#21"/><use xlink:href="#22" y="2.171"/><use xlink:href="#27" y="4.342"/><use xlink:href="#28" y="6.513"/></svg><svg x="6248"><use xlink:href="#a"/><use xlink:href="#23"/><use xlink:href="#24" y="2.171"/><use xlink:href="#27" y="4.342"/><use xlink:href="#28" y="6.513"/><use xlink:href="#14" y="8.684"/><use xlink:href="#13" y="10.855"/></svg><svg x="6319"><use xlink:href="#a"/><use xlink:href="#29"/><use xlink:href="#30" y="2.171"/><use xlink:href="#27" y="4.342"/><use xlink:href="#28" y="6.513"/><use xlink:href="#14" y="8.684"/><use xlink:href="#13" y="10.855"/></svg><svg x="6390"><use xlink:href="#a"/><use xlink:href="#29"/></svg><svg x="6461"><use xlink:href="#a"/><use xlink:href="#31"/><use xlink:href="#32" y="2.171"/><use xlink:href="#27" y="4.342"/><use xlink:href="#28" y="6.513"/><use xlink:href="#14" y="8.684"/><use xlink:href="#13" y="10.855"/></svg><svg x="6532"><use xlink:href="#a"/><use xlink:href="#31"/><use xlink:href="#32" y="2.171"/><use xlink:href="#27" y="4.342"/><use xlink:href="#28" y="6.513"/><use xlink:href="#14" y="8.684"/></svg><svg x="6603"><use xlink:href="#a"/><use xlink:href="#1"/><use xlink:href="#2" y="2.171"/><use xlink:href="#27" y="4.342"/><use xlink:href="#28" y="6.513"/><use xlink:href="#14" y="8.684"/><use xlink:href="#13" y="10.855"/></svg><svg x="6674"><use xlink:href="#a"/><use xlink:href="#1"/><use xlink:href="#2" y="2.171"/><use xlink:href="#27" y="4.342"/></svg><svg x="6745"><use xlink:href="#a"/><use xlink:href="#6"/><use xlink:href="#7" y="2.171"/><use xlink:href="#27" y="4.342"/><use xlink:href="#28" y="6.513"/><use xlink:href="#14" y="8.684"/><use xlink:href="#13" y="10.855"/></svg><svg x="6816"><use xlink:href="#a"/><use xlink:href="#6"/><use xlink:href="#7" y="2.171"/><use xlink:href="#27" y="4.342"/><use xlink:href="#28" y="6.513"/></svg><svg x="6887"><use xlink:href="#a"/><use xlink:href="#8"/><use xlink:href="#9" y="2.171"/><use xlink:href="#27" y="4.342"/><use xlink:href="#28" y="6.513"/><use xlink:href="#14" y="8.684"/><use xlink:href="#13" y="10.855"/></svg><svg x="6958"><use xlink:href="#a"/><use xlink:href="#8"/><use xlink:href="#9" y="2.171"/><use xlink:href="#27" y="4.342"/><use xlink:href="#28" y="6.513"/></svg><svg x="7029"><use xlink:href="#a"/><use xlink:href="#15"/><use xlink:href="#16" y="2.171"/><use xlink:href="#27" y="4.342"/><use xlink:href="#28" y="6.513"/><use xlink:href="#14" y="8.684"/><use xlink:href="#13" y="10.855"/></svg><svg x="7100"><use xlink:href="#a"/><use xlink:href="#15"/><use xlink:href="#16" y="2.171"/><use xlink:href="#27" y="4.342"/><use xlink:href="#28" y="6.513"/></svg><svg x="7171"><use xlink:href="#a"/><use xlink:href="#17"/><use xlink:href="#18" y="2.171"/><use xlink:href="#27" y="4.342"/><use xlink:href="#28" y="6.513"/><use xlink:href="#14" y="8.684"/><use xlink:href="#13" y="10.855"/></svg><svg x="7242"><use xlink:href="#a"/><use xlink:href="#17"/><use xlink:href="#18" y="2.171"/><use xlink:href="#27" y="4.342"/><use xlink:href="#28" y="6.513"/></svg><svg x="7313"><use xlink:href="#a"/><use xlink:href="#17"/></svg><svg x="7384"><use xlink:href="#a"/><use xlink:href="#33"/><use xlink:href="#34" y="2.171"/><use xlink:href="#27" y="4.342"/><use xlink:href="#28" y="6.513"/><use xlink:href="#14" y="8.684"/><use xlink:href="#13" y="10.855"/></svg><svg x="7455"><use xlink:href="#a"/><use xlink:href="#33"/><use xlink:href="#34" y="2.171"/><use xlink:href="#27" y="4.342"/><use xlink:href="#28" y="6.513"/><use xlink:href="#14" y="8.684"/></svg><svg x="7526"><use xlink:href="#a"/><use xlink:href="#33"/><use xlink:href="#34" y="2.171"/><use xlink:href="#27" y="4.342"/><use xlink:href="#28" y="6.513"/><use xlink:href="#14" y="8.684"/><use xlink:href="#13" y="10.855"/></svg><svg x="7597"><use xlink:href="#a"/><use xlink:href="#b" x="-.004" y="13.001"/><use xlink:href="#33"/><use xlink:href="#34" y="2.171"/><use xlink:href="#27" y="4.342"/><use xlink:href="#28" y="6.513"/><use xlink:href="#14" y="8.684"/><use xlink:href="#13" y="10.855"/></svg><svg x="7668"><use xlink:href="#a"/><use xlink:href="#b" x="-.004" y="15.172"/><use xlink:href="#33"/><use xlink:href="#34" y="2.171"/><use xlink:href="#27" y="4.342"/><use xlink:href="#28" y="6.513"/><use xlink:href="#14" y="8.684"/><use xlink:href="#13" y="10.855"/><use xlink:href="#35" y="13.026"/></svg><svg x="7739"><use xlink:href="#a"/><use xlink:href="#b" x="-.004" y="15.172"/><use xlink:href="#33"/><use xlink:href="#34" y="2.171"/><use xlink:href="#27" y="4.342"/><use xlink:href="#28" y="6.513"/><use xlink:href="#14" y="8.684"/><use xlink:href="#13" y="10.855"/><use xlink:href="#35" y="13.026"/></svg></svg></g></g></svg></svg>